<svg version="1.1" xmlns="http://www.w3.org/2000/svg" width="1280" height="1280">
<path d="M0 0 C1.51 1.46 1.51 1.46 3.12 3.38 C3.93 4.31 3.93 4.31 4.76 5.27 C6 7 6 7 6 9 C6.62 9.25 7.24 9.5 7.88 9.75 C10.4 11.24 10.72 12.44 12 15 C13.93 16.09 13.93 16.09 16 17 C17.75 18.5 17.75 18.5 19 20 C19 20.66 19 21.32 19 22 C19.99 22.33 20.98 22.66 22 23 C26 27.46 26 27.46 26 30 C26.57 30.24 27.15 30.48 27.74 30.72 C30.48 32.27 32.11 34.07 34.19 36.44 C35.38 37.79 35.38 37.79 36.59 39.17 C39.61 42.72 42.55 46.32 45.48 49.95 C47.36 52.22 49.26 54.44 51.21 56.64 C56.82 62.97 62.03 69.11 66.39 76.39 C68.13 79.21 70.03 81.84 72 84.5 C75.33 89.01 78.38 93.63 81.35 98.38 C82.86 100.78 84.42 103.15 86 105.5 C91.77 114.12 97.15 122.83 102 132 C102.71 133.33 103.42 134.65 104.13 135.98 C106.44 140.31 108.73 144.65 111 149 C111.33 149.63 111.66 150.27 112.01 150.92 C115.79 158.18 119.05 165.45 121.89 173.13 C122.79 175.47 123.76 177.61 124.94 179.81 C127.89 185.46 129.94 191.55 132.11 197.53 C132.78 199.39 133.47 201.25 134.16 203.11 C137.34 211.72 139.84 220.41 142.06 229.31 C142.41 230.69 142.76 232.07 143.11 233.45 C143.78 236.13 144.45 238.81 145.12 241.48 C145.83 244.31 146.55 247.13 147.3 249.95 C150.35 261.78 151.77 273.85 153 286 C153.15 287.39 153.15 287.39 153.29 288.8 C154.32 299.99 154.24 311.22 154.25 322.44 C154.25 323.52 154.25 324.6 154.26 325.72 C154.26 349.1 153.61 373.2 147.56 395.94 C146.54 399.86 145.61 403.79 144.75 407.75 C143.24 414.36 141.38 420.86 139.5 427.38 C139.2 428.41 138.91 429.44 138.6 430.51 C137.03 435.86 135.3 440.92 133 446 C132.36 447.7 131.73 449.41 131.12 451.12 C126.11 465.07 120.77 478.81 114 492 C113.45 493.13 113.45 493.13 112.89 494.28 C109.6 501.04 105.91 507.55 102.21 514.09 C100.35 517.37 98.54 520.68 96.75 524 C93.68 529.66 90.33 535.07 86.69 540.38 C84.82 542.76 84.82 542.76 85 545 C86.29 545.29 86.29 545.29 87.6 545.59 C89.31 545.98 89.31 545.98 91.06 546.38 C92.19 546.63 93.31 546.89 94.47 547.15 C98.02 548 101.5 548.99 105 550 C107.2 550.62 109.39 551.23 111.59 551.85 C124.43 555.48 137.19 559.22 149.75 563.75 C151.22 564.28 151.22 564.28 152.72 564.82 C158.42 566.92 163.93 569.29 169.45 571.85 C171.68 572.85 173.9 573.74 176.2 574.57 C180.25 576.04 184.04 577.91 187.88 579.88 C189.28 580.59 190.69 581.3 192.1 582.02 C192.77 582.36 193.44 582.7 194.13 583.05 C196.52 584.26 198.91 585.44 201.31 586.62 C213.26 592.61 225.09 599.05 235.95 606.84 C241.02 610.43 246.17 613.9 251.31 617.38 C259.97 623.27 259.97 623.27 263 626 C263 626.66 263 627.32 263 628 C263.57 628.27 264.14 628.54 264.73 628.81 C267.08 630.04 269.12 631.43 271.25 633 C272.31 633.77 272.31 633.77 273.39 634.56 C273.92 635.04 274.45 635.51 275 636 C275 636.66 275 637.32 275 638 C275.88 638.41 275.88 638.41 276.79 638.82 C284.1 642.71 289.91 649.64 295 656 C296.66 657.67 298.33 659.34 300 661 C311.05 672.55 320.74 684.98 330 698 C330.59 698.82 331.19 699.64 331.8 700.48 C335.68 705.89 339.08 711.47 342.38 717.25 C343.7 719.49 345.06 721.55 346.62 723.62 C349.05 726.91 350.78 730.39 352.55 734.06 C353.97 736.93 355.47 739.74 357 742.55 C360.01 748.08 362.84 753.54 365.02 759.46 C365.9 761.75 366.87 763.97 367.88 766.21 C373.87 779.61 378.61 793.53 383.25 807.44 C383.66 808.67 384.07 809.9 384.5 811.17 C388.43 823.06 391.95 834.98 394.5 847.25 C394.92 849.25 395.35 851.26 395.77 853.26 C395.98 854.24 396.19 855.21 396.4 856.21 C396.94 858.72 397.51 861.21 398.1 863.71 C400.26 872.83 401.81 881.91 402.96 891.22 C403.5 895.52 404.12 899.74 405.02 903.98 C406.1 909.22 406.66 914.42 407.06 919.75 C407.14 920.83 407.23 921.92 407.31 923.03 C408.79 945.3 408.71 967.69 409 990 C353.79 990.59 353.79 990.59 332.94 988.62 C332.26 988.56 331.59 988.5 330.9 988.43 C326.59 988.02 322.29 987.53 318 987 C317.35 986.92 316.7 986.84 316.04 986.77 C308.87 985.9 301.97 984.86 295 983 C291.43 982.3 287.84 981.69 284.25 981.06 C276.4 979.67 268.7 978.07 261 976 C258.94 975.5 256.88 975 254.81 974.5 C250.61 973.45 246.54 972.23 242.45 970.81 C239.47 969.82 236.46 968.98 233.44 968.12 C211.33 961.86 211.33 961.86 203.4 958.1 C200.15 956.61 196.83 955.31 193.5 954 C188.7 952.1 183.94 950.14 179.23 947.99 C176.54 946.8 173.8 945.72 171.06 944.62 C166.24 942.63 161.9 940.29 157.48 937.53 C154.95 935.97 152.37 934.54 149.75 933.12 C139.46 927.55 129.48 921.89 120 915 C118.32 913.81 116.63 912.62 114.94 911.44 C114.12 910.87 113.31 910.29 112.47 909.7 C109.24 907.48 105.94 905.36 102.62 903.26 C101.82 902.64 101.82 902.64 101 902 C101 901.34 101 900.68 101 900 C100.32 899.8 99.63 899.6 98.93 899.39 C94.98 897.52 92.3 894.83 89.19 891.81 C88.02 890.69 86.84 889.57 85.67 888.46 C85.07 887.89 84.48 887.32 83.86 886.73 C81.96 884.96 80.01 883.26 78.05 881.56 C73.89 877.95 69.95 874.15 66.06 870.25 C65.36 869.55 64.66 868.85 63.94 868.13 C59.36 863.49 55.1 858.76 51.07 853.63 C48.79 850.73 46.4 847.93 44 845.12 C38.9 839.02 34.45 832.58 30 826 C29.22 824.88 28.43 823.76 27.65 822.64 C23.15 816.24 18.91 809.78 15 803 C14.37 801.94 13.75 800.89 13.1 799.8 C9.44 793.58 6.06 787.29 3 780.75 C2.55 779.78 2.55 779.78 2.08 778.8 C0 774.26 0 774.26 0 772 C-3.28 774.71 -4.78 778.3 -6.56 782.06 C-17 803.45 -29.56 823.11 -44 842 C-44.51 842.68 -45.01 843.36 -45.53 844.06 C-49.82 849.74 -54.54 854.96 -59.38 860.16 C-61.43 862.39 -63.42 864.63 -65.38 866.94 C-72.87 875.57 -81.2 883.7 -90 891 C-90.94 891.8 -91.89 892.6 -92.86 893.42 C-100.74 900 -100.74 900 -103 900 C-103 900.66 -103 901.32 -103 902 C-104.48 903.16 -104.48 903.16 -106.62 904.5 C-110.16 906.77 -113.59 909.12 -116.98 911.59 C-124.11 916.77 -131.43 921.48 -139 926 C-140.24 926.76 -141.49 927.52 -142.73 928.29 C-152.39 934.2 -162.24 939.49 -172.67 943.95 C-174.7 944.87 -176.67 945.85 -178.66 946.87 C-183.23 949.17 -187.93 951.07 -192.69 952.94 C-193.57 953.29 -194.44 953.63 -195.35 953.99 C-197.9 955 -200.45 956 -203 957 C-203.66 957.26 -204.32 957.52 -204.99 957.79 C-216.05 962.15 -227.24 965.83 -238.65 969.14 C-243 970.4 -247.31 971.74 -251.62 973.12 C-257.5 974.95 -263.42 976.15 -269.46 977.29 C-272.46 977.89 -275.32 978.63 -278.25 979.5 C-284.11 981.18 -290.07 982.04 -296.1 982.91 C-299.73 983.44 -303.18 984.05 -306.73 984.99 C-312.57 986.52 -318.58 986.96 -324.56 987.56 C-325.74 987.69 -326.91 987.81 -328.12 987.94 C-331.74 988.32 -335.37 988.67 -339 989 C-340.05 989.1 -341.11 989.2 -342.2 989.31 C-355.39 990.39 -368.63 990.15 -381.86 990.13 C-384.57 990.12 -387.29 990.13 -390.01 990.13 C-393.25 990.14 -396.5 990.14 -399.74 990.13 C-401.57 990.14 -401.57 990.14 -403.43 990.14 C-404.54 990.14 -405.65 990.13 -406.8 990.13 C-407.78 990.13 -408.77 990.13 -409.78 990.13 C-412 990 -412 990 -413 989 C-413.08 987.46 -413.09 985.92 -413.07 984.38 C-413.06 983.38 -413.05 982.39 -413.04 981.37 C-413.02 980.28 -413 979.19 -412.98 978.07 C-412.97 976.94 -412.95 975.81 -412.94 974.65 C-412.88 970.95 -412.82 967.26 -412.75 963.56 C-412.73 962.32 -412.71 961.07 -412.68 959.79 C-412.4 944.36 -411.93 928.99 -410.5 913.62 C-410.43 912.91 -410.37 912.2 -410.3 911.47 C-409.24 900.24 -409.24 900.24 -408 899 C-407.6 896.76 -407.27 894.5 -406.95 892.25 C-406.74 890.82 -406.54 889.39 -406.33 887.96 C-406.01 885.73 -405.69 883.49 -405.38 881.25 C-404.07 871.84 -402.34 862.71 -399.92 853.52 C-399.06 850.21 -398.29 846.9 -397.56 843.56 C-395.75 835.6 -393.37 827.81 -391 820 C-390.65 818.83 -390.29 817.66 -389.93 816.45 C-386.69 805.79 -383.17 795.33 -379 785 C-378.31 783.26 -377.61 781.52 -376.92 779.77 C-372.7 769.24 -368.22 758.98 -362.98 748.91 C-361.97 746.94 -360.98 744.95 -360 742.95 C-351.4 725.4 -341.39 708.89 -330 693 C-329.1 691.71 -329.1 691.71 -328.18 690.4 C-324.01 684.54 -319.58 679 -314.86 673.59 C-311.94 670.22 -309.47 666.71 -307 663 C-305.37 661.62 -303.7 660.29 -302 659 C-300.31 657.35 -298.65 655.69 -297 654 C-296.15 653.17 -295.31 652.35 -294.44 651.5 C-291.98 649.07 -291.98 649.07 -290 646.44 C-287.89 643.86 -285.63 642.03 -283 640 C-282.56 639.55 -282.11 639.1 -281.65 638.64 C-269.18 626.28 -235.95 595 -218 595 C-218 594.34 -218 593.68 -218 593 C-217.43 592.73 -216.85 592.46 -216.26 592.18 C-213.59 590.91 -210.92 589.64 -208.25 588.38 C-207.28 587.91 -206.31 587.45 -205.3 586.98 C-200.54 584.71 -195.81 582.42 -191.12 580 C-172.16 570.47 -152.35 562.95 -132.02 556.92 C-129.61 556.19 -127.24 555.4 -124.86 554.58 C-119.47 552.78 -114 551.35 -108.5 549.94 C-107.03 549.55 -107.03 549.55 -105.53 549.16 C-99.71 547.65 -93.88 546.27 -88 545 C-89.52 540.77 -91.66 537.06 -94 533.25 C-94.81 531.91 -95.62 530.57 -96.43 529.23 C-96.85 528.54 -97.28 527.84 -97.71 527.13 C-120.67 489.26 -137.48 448.74 -149 406 C-149.32 404.82 -149.32 404.82 -149.64 403.62 C-153.1 390.65 -153.1 390.65 -153 385 C-153.33 384.67 -153.66 384.34 -154 384 C-154.33 380.64 -154.51 377.28 -154.72 373.91 C-154.68 371.11 -154.68 371.11 -156 370 C-158.21 354.89 -158.36 339.74 -158.31 324.5 C-158.31 323.36 -158.31 322.22 -158.31 321.04 C-158.28 303.84 -157.64 287.03 -155 270 C-154.84 268.91 -154.68 267.81 -154.52 266.69 C-153.63 260.65 -152.6 254.78 -151.06 248.88 C-150.74 247.63 -150.43 246.39 -150.1 245.12 C-147.68 235.98 -145.14 226.89 -142.5 217.81 C-142.2 216.78 -141.91 215.76 -141.61 214.7 C-139.09 206.03 -135.95 197.77 -132.5 189.44 C-132.2 188.72 -131.91 188.01 -131.61 187.27 C-129.77 182.83 -127.89 178.41 -126 174 C-125.57 172.96 -125.15 171.92 -124.71 170.85 C-121.31 162.64 -117.39 154.87 -113.17 147.05 C-111.29 143.57 -109.5 140.05 -107.75 136.5 C-97.94 116.74 -85.61 98.12 -72.75 80.23 C-70.27 76.78 -67.84 73.31 -65.44 69.81 C-59.64 61.52 -52.97 53.91 -46.38 46.25 C-45.85 45.64 -45.32 45.02 -44.78 44.39 C-41.52 40.62 -38.12 37.09 -34.5 33.67 C-32.89 31.88 -32.04 30.15 -31 28 C-29.38 26.29 -27.71 24.63 -26 23 C-25.2 22.18 -24.39 21.35 -23.56 20.5 C-20.83 17.83 -17.93 15.44 -15 13 C-12.44 10.56 -10.12 8.16 -7.94 5.38 C-3.55 0 -3.55 0 0 0 Z M-2 141 C-16.38 156.54 -25.78 178.36 -35.1 197.19 C-36.27 199.55 -37.48 201.9 -38.69 204.25 C-50 226.96 -58.1 251.93 -62.58 276.85 C-62.99 278.94 -63.49 280.98 -64.04 283.04 C-70.55 308.48 -70.89 348.18 -62 373 C-61.09 376.92 -60.35 380.88 -59.59 384.84 C-58.66 389.45 -57.47 393.72 -55.74 398.09 C-54.54 401.19 -53.64 404.38 -52.69 407.56 C-50.24 415.58 -47.21 423.26 -44 431 C-43.65 431.92 -43.29 432.85 -42.93 433.8 C-35.26 453.44 -24.08 472.22 -13.1 490.19 C-12.06 491.9 -11.05 493.63 -10.04 495.37 C-9.45 496.36 -8.86 497.35 -8.25 498.38 C-7.74 499.25 -7.23 500.12 -6.7 501.02 C-4.59 503.47 -3.16 503.71 0 504 C7.79 493.54 7.79 493.54 13.96 482.09 C15 480 15 480 16.38 478.23 C18.23 475.68 19.53 473.05 20.91 470.23 C22.83 466.31 24.9 462.48 26.94 458.62 C28.25 456.14 29.56 453.65 30.86 451.16 C31.78 449.42 32.7 447.67 33.62 445.93 C36.18 440.98 38.2 435.97 40.04 430.71 C40.95 428.15 41.92 425.64 42.94 423.12 C43.27 422.31 43.59 421.49 43.93 420.64 C44.69 418.76 45.46 416.89 46.22 415.01 C50.69 403.82 53.61 392.28 56.21 380.52 C56.78 377.98 57.38 375.45 58 372.91 C61.3 359.07 62.32 345.19 63 331 C63.04 330.26 63.07 329.53 63.11 328.77 C63.82 311.65 62.57 293.49 58.59 276.82 C58 274 58 274 58.04 271.43 C57.99 268.53 57.09 266.68 56 264 C55.48 262.16 54.99 260.31 54.52 258.46 C51.31 245.96 47.82 233.89 42.82 221.99 C42.02 220.05 41.26 218.09 40.51 216.13 C37.16 207.38 33.19 199.08 28.9 190.76 C27.68 188.38 26.5 185.97 25.31 183.56 C21.27 175.5 16.69 167.84 11.94 160.18 C9.5 156.18 7.21 152.12 5 148 C4.34 148 3.68 148 3 148 C2.69 147.22 2.38 146.43 2.06 145.62 C1.07 143.08 1.07 143.08 0 141 C-0.66 141 -1.32 141 -2 141 Z M52 633 C50.69 634.09 50.69 634.09 50.86 636.73 C50.99 639.81 51.44 642.3 52.25 645.25 C53.43 649.7 54.48 654.16 55.44 658.66 C56.94 665.72 58.66 672.54 61.07 679.36 C61.93 681.79 62.67 684.22 63.38 686.69 C68.97 705.77 68.97 705.77 77.54 723.55 C78.89 725.82 79.8 727.9 80.69 730.38 C83.24 736.95 86.64 743.04 90.02 749.21 C90.9 750.82 91.77 752.44 92.64 754.05 C95.11 758.64 97.64 763.18 100.25 767.69 C100.73 768.52 101.21 769.35 101.7 770.2 C102.13 770.79 102.56 771.39 103 772 C103.66 772 104.32 772 105 772 C105.24 772.7 105.47 773.39 105.71 774.11 C107.23 777.52 109.27 780.28 111.56 783.19 C112 783.75 112.44 784.32 112.89 784.9 C116.45 789.42 120.24 793.7 124.19 797.88 C125.89 799.87 126.85 801.67 128 804 C129.46 805.27 130.93 806.53 132.44 807.73 C134.8 809.65 136.85 811.85 139 814 C148.11 822.5 157.71 829.99 168 837 C168.68 837.47 169.37 837.93 170.07 838.41 C172.42 840.01 174.77 841.6 177.12 843.19 C178.25 843.95 178.25 843.95 179.4 844.74 C184.12 847.9 188.88 850.57 194 853 C195.31 853.65 196.62 854.31 197.93 854.96 C199.95 855.98 201.98 856.99 204 858 C206.91 859.45 209.82 860.9 212.7 862.42 C234.34 873.75 259.43 880.46 283.06 886.23 C283.92 886.45 284.79 886.66 285.68 886.88 C286.46 887.07 287.24 887.26 288.05 887.46 C290 888 290 888 292 889 C297.29 890.06 302.64 890.49 308 891 C308 886.71 308 882.42 308 878 C307.34 878 306.68 878 306 878 C305.92 876.7 305.84 875.4 305.75 874.06 C304.45 861.4 300.67 849.39 296.27 837.51 C295 834 295 834 294.54 832.1 C291.13 818.75 285.13 805.32 279 793 C278.32 791.61 277.64 790.23 276.96 788.84 C273.38 781.48 273.38 781.48 269.39 774.34 C268 772 268 772 266.98 769.45 C265.99 766.98 264.82 765.05 263.31 762.88 C261.03 759.55 258.87 756.18 256.75 752.75 C253.21 747.14 249.23 741.96 245.14 736.75 C243 734 243 734 241 731 C240.34 731 239.68 731 239 731 C238.63 730.16 238.63 730.16 238.25 729.29 C230.72 715.51 214.83 703.52 202 695 C200.07 693.55 198.16 692.09 196.25 690.62 C191.02 686.68 185.67 683.26 180 680 C178.44 679.04 176.87 678.08 175.31 677.12 C147.88 660.67 117.97 648.68 87.08 640.55 C85.1 640.03 83.14 639.47 81.18 638.91 C74.2 636.95 67.27 635.4 60.12 634.19 C59.33 634.05 58.54 633.92 57.72 633.77 C55.82 633.47 53.91 633.23 52 633 Z M-70.81 635.69 C-71.64 635.87 -72.47 636.05 -73.32 636.23 C-87.46 639.37 -101.22 643.58 -114.91 648.29 C-116.3 648.76 -117.7 649.22 -119.1 649.67 C-130.2 653.23 -140.75 658.18 -151.31 663.06 C-152.44 663.58 -153.57 664.1 -154.73 664.63 C-160.31 667.2 -165.71 669.86 -171 673 C-172.19 673.65 -173.39 674.3 -174.59 674.94 C-184.35 680.23 -193.39 686.26 -202.35 692.81 C-203.88 693.91 -205.44 694.96 -207 696 C-207 696.66 -207 697.32 -207 698 C-207.68 698.2 -208.37 698.4 -209.07 698.61 C-213.03 700.49 -215.74 703.17 -218.88 706.19 C-219.53 706.81 -220.18 707.43 -220.85 708.06 C-222.91 710.03 -224.95 712.02 -227 714 C-227.66 714.63 -228.32 715.27 -229 715.92 C-237.5 724.09 -245.18 732.35 -252 742 C-252.74 743.03 -252.74 743.03 -253.49 744.08 C-261.7 755.55 -268.95 767.42 -275.77 779.77 C-276.81 781.66 -277.87 783.54 -278.94 785.42 C-281.72 790.36 -284.05 795.31 -286.07 800.61 C-286.96 802.89 -287.92 805.09 -288.94 807.31 C-299.96 831.86 -307.37 858.59 -312.39 884.99 C-313 888 -313 888 -314 891 C-313.34 891.66 -312.68 892.32 -312 893 C-311.09 892.73 -310.18 892.46 -309.24 892.18 C-303.92 890.65 -298.52 889.45 -293.12 888.19 C-282.97 885.78 -272.97 883.07 -263 880 C-261.29 879.5 -259.58 879 -257.88 878.5 C-244.59 874.63 -244.59 874.63 -232 869.02 C-229.88 867.94 -227.73 867.08 -225.5 866.22 C-219.63 863.9 -213.94 861.23 -208.25 858.5 C-207.25 858.03 -206.25 857.55 -205.21 857.07 C-200.2 854.67 -195.53 852.21 -191 849 C-189.34 848.06 -187.68 847.11 -186.02 846.17 C-168.45 835.99 -148.78 822.48 -136 806.5 C-133.83 803.79 -131.46 801.46 -129 799 C-117.65 787 -108.46 774.12 -100 760 C-99.37 758.96 -98.74 757.92 -98.1 756.84 C-92.11 746.75 -86.06 736.45 -81.92 725.44 C-80.88 722.68 -79.72 719.97 -78.56 717.25 C-76.26 711.75 -74.22 706.19 -72.25 700.57 C-71.43 698.21 -70.58 695.87 -69.71 693.53 C-67.04 686.27 -64.82 679.01 -62.9 671.52 C-62.13 668.51 -61.3 665.54 -60.44 662.56 C-57.87 653.22 -56.32 643.59 -55 634 C-60.52 633.8 -65.43 634.5 -70.81 635.69 Z M309 889 C310 893 310 893 310 893 Z M-408 900 C-407 902 -407 902 -407 902 Z " fill="#ffffff" transform="translate(641,144)"/>
<path d="M0 0 C15.18 0 30.36 0 46 0 C46 0.33 46 0.66 46 1 C30.82 1 15.64 1 0 1 C0 0.67 0 0.34 0 0 Z " fill="#000000" transform="translate(1004,1135)"/>
<path d="M0 0 C15.18 0 30.36 0 46 0 C46 0.33 46 0.66 46 1 C30.82 1 15.64 1 0 1 C0 0.67 0 0.34 0 0 Z " fill="#000000" transform="translate(230,1135)"/>
<path d="M0 0 C0.33 0 0.66 0 1 0 C1 11.55 1 23.1 1 35 C0.67 35 0.34 35 0 35 C0 23.45 0 11.9 0 0 Z " fill="#000000" transform="translate(796,450)"/>
<path d="M0 0 C1.98 0 3.96 0 6 0 C6 0.33 6 0.66 6 1 C4.02 1 2.04 1 0 1 C0 0.67 0 0.34 0 0 Z " fill="#000000" transform="translate(988,1134)"/>
<path d="M0 0 C1.65 0 3.3 0 5 0 C5 0.33 5 0.66 5 1 C3.35 1 1.7 1 0 1 C0 0.67 0 0.34 0 0 Z " fill="#000000" transform="translate(287,1134)"/>
<path d="M0 0 C0.33 0 0.66 0 1 0 C1 1.65 1 3.3 1 5 C0.67 5 0.34 5 0 5 C0 3.35 0 1.7 0 0 Z " fill="#000000" transform="translate(795,492)"/>
<path d="M0 0 C0.33 0 0.66 0 1 0 C1 1.65 1 3.3 1 5 C0.67 5 0.34 5 0 5 C0 3.35 0 1.7 0 0 Z " fill="#000000" transform="translate(795,438)"/>
<path d="" fill="#000000" transform="translate(0,0)"/>
<path d="" fill="#000000" transform="translate(0,0)"/>
<path d="M0 0 C2 1 2 1 2 1 Z " fill="#000000" transform="translate(338,1128)"/>
<path d="M0 0 C2 1 2 1 2 1 Z " fill="#000000" transform="translate(887,1116)"/>
<path d="M0 0 C2 1 2 1 2 1 Z " fill="#000000" transform="translate(391,1116)"/>
<path d="" fill="#000000" transform="translate(0,0)"/>
<path d="" fill="#000000" transform="translate(0,0)"/>
<path d="" fill="#000000" transform="translate(0,0)"/>
<path d="" fill="#000000" transform="translate(0,0)"/>
<path d="" fill="#000000" transform="translate(0,0)"/>
<path d="" fill="#000000" transform="translate(0,0)"/>
<path d="" fill="#000000" transform="translate(0,0)"/>
<path d="" fill="#000000" transform="translate(0,0)"/>
<path d="" fill="#000000" transform="translate(0,0)"/>
<path d="" fill="#000000" transform="translate(0,0)"/>
<path d="" fill="#000000" transform="translate(0,0)"/>
<path d="" fill="#000000" transform="translate(0,0)"/>
<path d="" fill="#000000" transform="translate(0,0)"/>
<path d="" fill="#000000" transform="translate(0,0)"/>
<path d="" fill="#000000" transform="translate(0,0)"/>
<path d="" fill="#000000" transform="translate(0,0)"/>
<path d="" fill="#000000" transform="translate(0,0)"/>
<path d="" fill="#000000" transform="translate(0,0)"/>
<path d="" fill="#000000" transform="translate(0,0)"/>
<path d="" fill="#000000" transform="translate(0,0)"/>
<path d="" fill="#000000" transform="translate(0,0)"/>
<path d="" fill="#000000" transform="translate(0,0)"/>
<path d="" fill="#000000" transform="translate(0,0)"/>
<path d="" fill="#000000" transform="translate(0,0)"/>
<path d="" fill="#000000" transform="translate(0,0)"/>
<path d="" fill="#000000" transform="translate(0,0)"/>
<path d="" fill="#000000" transform="translate(0,0)"/>
<path d="" fill="#000000" transform="translate(0,0)"/>
<path d="" fill="#000000" transform="translate(0,0)"/>
</svg>
